#!OML:ASF I:\Actors\actors\Patient Classification 2\Patient 1\Session 1\actor1.ASF
:FULLY-SPECIFIED
:DEGREES
371
root -1.30957 18.6047 6.58279 -1.1622 9.57332 -5.61655
lowerback 12.4986 3.92742 2.12293
upperback 5.55173 5.48035 1.47569
thorax -1.11311 2.75786 -0.374379
lowerneck -1.56643 -0.768274 6.20149
upperneck 45.9064 -5.10823 8.61973
head 17.5671 0.163118 2.25938
rclavicle -1.26887e-013 1.73937e-014
rhumerus -5.5741 12.7787 -62.8247
rradius 144.358
rwrist -30.7682
rhand 15.0806 -26.0266
rfingers 7.12502
rthumb 39.9275 -51.2745
lclavicle -1.26887e-013 1.73937e-014
lhumerus -43.9615 2.28426 83.4585
lradius 46.1855
lwrist -3.65848
lhand -5.37989 -24.3351
lfingers 7.12502
lthumb 20.4284 4.61028
rfemur 0 0 0
rtibia 0
rfoot 0 0
rtoes 0
lfemur -7.13325 -9.67345 -6.61857
ltibia 27.6147
lfoot -20.1592 6.83346
ltoes -59.1878
372
root -1.30673 18.608 6.5929 -1.0524 9.58226 -5.56935
lowerback 12.506 3.86781 2.36211
upperback 5.56048 5.43243 1.63943
thorax -1.10241 2.73583 -0.331655
lowerneck -1.54127 -1.02291 6.01323
upperneck 45.7375 -5.54266 8.81605
head 17.4907 -0.0323659 2.31737
rclavicle 1.17159e-014 -1.33683e-014
rhumerus -6.10437 12.5787 -63.4165
rradius 144.45
rwrist -31.2307
rhand 15.2091 -26.088
rfingers 7.12502
rthumb 40.0484 -51.2995
lclavicle 1.17159e-014 -1.33683e-014
lhumerus -44.2229 2.45191 83.6292
lradius 46.1789
lwrist -3.62435
lhand -5.1008 -24.4431
lfingers 7.12502
lthumb 20.6966 4.47332
rfemur 0 0 0
rtibia 0
rfoot 0 0
rtoes 0
lfemur -7.18179 -9.65834 -6.66563
ltibia 27.5662
lfoot -20.1335 6.82197
ltoes -59.1488
373
root -1.30457 18.6098 6.60145 -0.972466 9.58677 -5.55721
lowerback 12.5344 3.77781 2.581
upperback 5.58476 5.34304 1.82523
thorax -1.09165 2.69275 -0.250587
lowerneck -1.58778 -1.24925 5.73937
upperneck 45.6336 -5.97993 9.11723
head 17.4858 -0.228372 2.44503
rclavicle -5.30258e-014 1.8487e-014
rhumerus -6.58838 12.4599 -63.9579
rradius 144.577
rwrist -31.6328
rhand 15.2181 -26.2103
rfingers 7.12502
rthumb 40.0569 -51.4192
lclavicle -5.30258e-014 1.8487e-014
lhumerus -44.553 2.21409 84.1977
lradius 46.7122
lwrist -3.66932
lhand -5.53545 -22.301
lfingers 7.12502
lthumb 20.2789 6.66038
rfemur 0 0 0
rtibia 0
rfoot 0 0
rtoes 0
lfemur -7.20476 -9.66642 -6.67027
ltibia 27.506
lfoot -20.1418 6.77382
ltoes -58.9829
374
root -1.30316 18.6117 6.61037 -0.893411 9.5261 -5.48307
lowerback 12.5617 3.67602 2.72349
upperback 5.63687 5.2291 2.03096
thorax -1.06064 2.63658 -0.102321
lowerneck -1.6785 -1.46577 5.30367
upperneck 45.5671 -6.35929 9.35239
head 17.5116 -0.433438 2.58067
rclavicle -4.3186e-014 7.35503e-015
rhumerus -6.8421 12.3621 -64.4327
rradius 144.678
rwrist -32.0985
rhand 15.292 -26.4367
rfingers 7.12502
rthumb 40.1265 -51.6245
lclavicle -4.3186e-014 7.35503e-015
lhumerus -44.7994 2.30472 84.6159
lradius 46.9382
lwrist -3.75462
lhand -5.70555 -21.5109
lfingers 7.12502
lthumb 20.1154 7.46776
rfemur 0 0 0
rtibia 0
rfoot 0 0
rtoes 0
lfemur -7.18386 -9.67025 -6.74953
ltibia 27.436
lfoot -20.1837 6.8016
ltoes -58.8707
375
root -1.30196 18.6148 6.61957 -0.803396 9.42173 -5.33754
lowerback 12.5803 3.62853 2.88621
upperback 5.70867 5.18624 2.17195
thorax -0.994664 2.61752 -0.0392233
lowerneck -1.78424 -1.73308 4.92389
upperneck 45.4194 -6.80333 9.56031
head 17.4962 -0.661003 2.6785
rclavicle 3.97569e-015 6.95746e-015
rhumerus -6.97459 12.0314 -64.9027
rradius 144.747
rwrist -32.5508
rhand 15.4208 -26.8284
rfingers 7.12502
rthumb 40.2476 -51.9792
lclavicle 3.97569e-015 6.95746e-015
lhumerus -44.9277 2.22174 85.009
lradius 47.0626
lwrist -3.71706
lhand -5.6265 -21.4149
lfingers 7.12502
lthumb 20.1914 7.5557
rfemur 0 0 0
rtibia 0
rfoot 0 0
rtoes 0
lfemur -7.1431 -9.6458 -6.91745
ltibia 27.3629
lfoot -20.1815 6.90296
ltoes -58.9407
376
root -1.30255 18.6181 6.62667 -0.696791 9.30447 -5.23901
lowerback 12.6939 3.67306 3.15682
upperback 5.70032 5.28092 2.21878
thorax -1.04178 2.66723 -0.160403
lowerneck -1.86031 -2.13347 4.88838
upperneck 45.2657 -7.50319 9.77989
head 17.4902 -0.934081 2.68514
rclavicle 2.22639e-014 -2.38542e-015
rhumerus -7.61443 11.4402 -65.4457
rradius 144.839
rwrist -32.866
rhand 15.5921 -26.8246
rfingers 7.12502
rthumb 40.4087 -51.9261
lclavicle 2.22639e-014 -2.38542e-015
lhumerus -45.0072 1.59725 85.3942
lradius 47.2003
lwrist -3.42537
lhand -5.32759 -21.3976
lfingers 7.12502
lthumb 20.4786 7.5424
rfemur 0 0 0
rtibia 0
rfoot 0 0
rtoes 0
lfemur -7.13713 -9.59505 -7.02027
ltibia 27.2854
lfoot -20.1378 6.97652
ltoes -59.0232
377
root -1.30368 18.6217 6.63227 -0.592327 9.17933 -5.18743
lowerback 12.5966 2.58427 2.3467
upperback 5.39825 3.79587 3.514
thorax -1.48112 1.89728 1.81788
lowerneck -0.183563 -1.21092 1.18468
upperneck 45.5582 -5.50994 9.96092
head 17.1356 -0.763921 3.73054
rclavicle -6.55989e-014 -3.65764e-014
rhumerus -7.06202 14.7458 -64.6536
rradius 144.722
rwrist -34.1348
rhand 15.7427 -26.5952
rfingers 7.12502
rthumb 40.5502 -51.6528
lclavicle -6.55989e-014 -3.65764e-014
lhumerus -46.9638 5.93405 86.1477
lradius 47.7473
lwrist -3.60105
lhand -5.15811 -21.3713
lfingers 7.12502
lthumb 20.6415 7.55116
rfemur 0 0 0
rtibia 0
rfoot 0 0
rtoes 0
lfemur -7.14415 -9.54634 -7.06219
ltibia 27.205
lfoot -20.0996 7.01067
ltoes -58.9861
378
root -1.30417 18.6256 6.63595 -0.509433 9.07319 -5.15421
lowerback 12.6307 1.75244 1.67369
upperback 5.23126 2.66075 4.5363
thorax -1.73179 1.31572 3.41759
lowerneck 0.678135 -0.565011 -1.5387
upperneck 45.7237 -4.19285 10.035
head 16.9094 -0.696568 4.43862
rclavicle 1.80894e-014 -3.10104e-014
rhumerus -6.58298 17.0237 -64.1517
rradius 144.672
rwrist -35.188
rhand 15.8833 -26.5135
rfingers 7.12502
rthumb 40.6824 -51.53
lclavicle 1.80894e-014 -3.10104e-014
lhumerus -48.3104 9.13213 86.7517
lradius 48.3
lwrist -3.69778
lhand -5.04302 -21.4055
lfingers 7.12502
lthumb 20.7521 7.50486
rfemur 0 0 0
rtibia 0
rfoot 0 0
rtoes 0
lfemur -7.14113 -9.52636 -7.08547
ltibia 27.1227
lfoot -20.0608 7.04946
ltoes -58.9332
379
root -1.30569 18.6288 6.63843 -0.423916 8.97297 -5.09879
lowerback 12.9572 3.29548 3.73332
upperback 5.69823 4.87582 2.80465
thorax -1.19646 2.46417 0.160482
lowerneck -1.69293 -2.87836 3.18302
upperneck 44.8919 -8.65849 10.5187
head 17.4195 -1.64366 3.16593
rclavicle 1.49089e-014 -3.18055e-015
rhumerus -9.48017 10.8581 -66.6476
rradius 145.14
rwrist -34.1912
rhand 16.0752 -26.1195
rfingers 7.12502
rthumb 40.8627 -51.0794
lclavicle 1.49089e-014 -3.18055e-015
lhumerus -45.7404 1.66431 86.671
lradius 47.9626
lwrist -2.88461
lhand -4.80006 -21.4873
lfingers 7.12502
lthumb 20.9855 7.39742
rfemur 0 0 0
rtibia 0
rfoot 0 0
rtoes 0
lfemur -7.13801 -9.49939 -7.13034
ltibia 27.0322
lfoot -19.9897 7.11847
ltoes -58.9257
380
root -1.30809 18.6314 6.64161 -0.325491 8.84756 -5.02364
lowerback 13.0353 3.1795 3.91796
upperback 5.72453 4.75148 2.96767
thorax -1.21179 2.40287 0.23965
lowerneck -1.78563 -3.15569 2.68604
upperneck 44.806 -9.08385 10.6677
head 17.4613 -1.88955 3.26278
rclavicle -2.78299e-014 -2.94201e-014
rhumerus -9.97294 10.4211 -67.0628
rradius 145.212
rwrist -34.7281
rhand 16.1333 -26.0195
rfingers 7.12502
rthumb 40.9173 -50.9621
lclavicle -2.78299e-014 -2.94201e-014
lhumerus -45.8377 1.47772 87.1682
lradius 48.2732
lwrist -2.58244
lhand -4.68949 -21.6676
lfingers 7.12502
lthumb 21.0917 7.20527
rfemur 0 0 0
rtibia 0
rfoot 0 0
rtoes 0
lfemur -7.13163 -9.43787 -7.19953
ltibia 26.9357
lfoot -19.8885 7.2233
ltoes -58.9234
381
root -1.31046 18.6349 6.64474 -0.218337 8.71913 -4.96659
lowerback 13.0417 3.08092 4.1365
upperback 5.80927 4.64613 3.08812
thorax -1.12034 2.35454 0.260723
lowerneck -1.9599 -3.50505 2.31808
upperneck 44.6362 -9.62516 10.7803
head 17.4798 -2.1674 3.29367
rclavicle -3.97569e-015 -1.66979e-014
rhumerus -10.4156 9.79514 -67.5456
rradius 145.275
rwrist -35.2761
rhand 16.1255 -26.0516
rfingers 7.12502
rthumb 40.91 -50.9965
lclavicle -3.97569e-015 -1.66979e-014
lhumerus -45.9119 1.02656 87.6703
lradius 48.7171
lwrist -2.13692
lhand -4.66415 -21.7834
lfingers 7.12502
lthumb 21.1161 7.08675
rfemur 0 0 0
rtibia 0
rfoot 0 0
rtoes 0
lfemur -7.13652 -9.41703 -7.24798
ltibia 26.84
lfoot -19.8664 7.30378
ltoes -58.8275
382
root -1.31257 18.6394 6.64683 -0.100035 8.60949 -4.88615
lowerback 13.0349 2.98548 4.3585
upperback 5.83816 4.54609 3.17669
thorax -1.07759 2.30793 0.244572
lowerneck -1.93743 -3.88308 1.91951
upperneck 44.4293 -10.1942 10.9379
head 17.4394 -2.46465 3.34711
rclavicle 4.6118e-014 1.59028e-014
rhumerus -11.0534 9.12957 -68.137
rradius 145.344
rwrist -35.7206
rhand 16.1491 -26.1364
rfingers 7.12502
rthumb 40.9322 -51.0743
lclavicle 4.6118e-014 1.59028e-014
lhumerus -45.941 0.656051 88.0803
lradius 48.9811
lwrist -1.87665
lhand -4.59739 -21.8927
lfingers 7.12502
lthumb 21.1802 6.9703
rfemur 0 0 0
rtibia 0
rfoot 0 0
rtoes 0
lfemur -7.16662 -9.45526 -7.31999
ltibia 26.7537
lfoot -19.9028 7.37727
ltoes -58.658
383
root -1.31586 18.6432 6.64704 1.79178e-006 8.50058 -4.83303
lowerback 13.1005 2.86249 4.55826
upperback 5.79122 4.41762 3.33222
thorax -1.16161 2.24283 0.306483
lowerneck -1.78402 -4.21026 1.32089
upperneck 44.3238 -10.648 11.0855
head 17.4303 -2.74805 3.45892
rclavicle 4.23411e-014 -3.49861e-014
rhumerus -11.8257 8.62128 -68.6963
rradius 145.371
rwrist -36.0182
rhand 16.2081 -26.1989
rfingers 7.12502
rthumb 40.9876 -51.1192
lclavicle 4.23411e-014 -3.49861e-014
lhumerus -46.0182 0.549344 88.5042
lradius 49.1743
lwrist -1.71107
lhand -4.47031 -21.7829
lfingers 7.12502
lthumb 21.3023 7.06632
rfemur 0 0 0
rtibia 0
rfoot 0 0
rtoes 0
lfemur -7.20302 -9.40431 -7.35268
ltibia 26.6805
lfoot -19.8818 7.41889
ltoes -58.5596
384
root -1.32108 18.646 6.64528 0.0807078 8.3757 -4.84051
lowerback 13.1146 2.72679 4.75507
upperback 5.80185 4.26778 3.54781
thorax -1.16296 2.16866 0.440739
lowerneck -1.70691 -4.49856 0.67303
upperneck 44.2238 -11.0367 11.2107
head 17.4424 -3.01235 3.57687
rclavicle -2.0276e-014 -1.19271e-014
rhumerus -12.4688 8.08678 -69.1289
rradius 145.334
rwrist -36.2953
rhand 16.1815 -26.2601
rfingers 7.12502
rthumb 40.9626 -51.1883
lclavicle -2.0276e-014 -1.19271e-014
lhumerus -45.9761 0.555485 88.9492
lradius 49.3804
lwrist -1.54235
lhand -4.25034 -21.5075
lfingers 7.12502
lthumb 21.5135 7.31776
rfemur 0 0 0
rtibia 0
rfoot 0 0
rtoes 0
lfemur -7.23543 -9.26245 -7.30895
ltibia 26.6171
lfoot -19.8356 7.38522
ltoes -58.5627
385
root -1.32617 18.6485 6.64365 0.127931 8.23941 -4.81472
lowerback 13.0529 2.5617 4.87451
upperback 5.88071 4.06154 3.78754
thorax -1.06042 2.06791 0.656998
lowerneck -1.66321 -4.76153 0.00153378
upperneck 44.1045 -11.3581 11.2611
head 17.4401 -3.26123 3.66983
rclavicle 3.02153e-014 7.15625e-015
rhumerus -12.9826 7.55629 -69.4641
rradius 145.272
rwrist -36.6749
rhand 15.8077 -26.3792
rfingers 7.12502
rthumb 40.6114 -51.4178
lclavicle 3.02153e-014 7.15625e-015
lhumerus -45.7954 0.653121 89.4147
lradius 49.5167
lwrist -1.35054
lhand -4.20879 -21.3282
lfingers 7.12502
lthumb 21.5535 7.49247
rfemur 0 0 0
rtibia 0
rfoot 0 0
rtoes 0
lfemur -7.21366 -9.14266 -7.31669
ltibia 26.555
lfoot -19.7725 7.39288
ltoes -58.6179
386
root -1.33082 18.6506 6.64374 0.138293 8.08162 -4.78311
lowerback 12.9743 2.38687 4.81196
upperback 5.96652 3.82191 4.12409
thorax -0.960571 1.94653 1.07985
lowerneck -1.63599 -5.0205 -0.739139
upperneck 44.0201 -11.6162 11.1691
head 17.4462 -3.50841 3.71783
rclavicle 1.39149e-014 2.38542e-015
rhumerus -13.4373 7.18208 -69.73
rradius 145.13
rwrist -36.9366
rhand 15.4156 -26.5048
rfingers 7.12502
rthumb 40.2427 -51.6572
lclavicle 1.39149e-014 2.38542e-015
lhumerus -45.6721 0.854319 89.9854
lradius 49.6947
lwrist -1.10725
lhand -4.22885 -21.2663
lfingers 7.12502
lthumb 21.5342 7.55661
rfemur 0 0 0
rtibia 0
rfoot 0 0
rtoes 0
lfemur -7.13667 -9.00562 -7.33826
ltibia 26.4877
lfoot -19.6952 7.43983
ltoes -58.6411
